<svg width="220" height="157" viewBox="0 0 220 157" fill="none" xmlns="http://www.w3.org/2000/svg"><path d="M13.8861 87.5852c0 2.8076-1.903 4.9262-4.42301 4.9262-.80371 0-2.78967-.2383-3.86301-2.4346v-.0104c-.36816-.6526-.5652-1.4348-.5652-2.2688 0-2.8904 2.34892-4.8329 4.5371-4.8329 2.18822 0 4.30892 1.5903 4.30892 4.6257m-4.07558-7.0499c-.69483 0-2.98671.1606-4.62525 2.1341L5.206 72.1748H.00518526v2.3103H2.44744v17.7466L0 92.1954l.0777788 2.331 3.3652312-.0311h1.74743v-1.554c1.79928 1.8338 3.90968 2.0461 4.77562 2.0461 3.77484 0 6.84974-3.398 6.84974-7.5731 0-3.9212-3.0075-6.8738-6.99493-6.8738M27.4352 82.334v2.2999h2.4474l-3.1215 7.3918-3.5675-7.3918h2.5045V82.334h-7.5238v2.2999h1.9652l5.2008 10.5154c-.9333 2.2481-2.577 3.0458-3.7126 3.0458-.5133 0-.9489-.0363-1.3378-.114l-.2489-.0466-.2489 2.6835.2022.036c.3319.062.6689.098.9852.098 4.5994 0 6.1394-3.5686 7.5031-6.718l4.1223-9.4897h2.1104v-2.3H27.43l.0052-.0103zM49.2236 76.2732v-1.1603h3.4327c2.857 0 4.3089 1.1396 4.3089 3.3929 0 1.8182-1.1667 2.6159-1.5245 2.8179-1.0007.6009-2.0689.6009-4.1896.6009h-1.9964v-4.2632l-.0311-1.383v-.0052zm10.3446 15.5814l-.0259-1.8752c0-1.5125 0-4.3252-1.1511-5.5788-.4926-.4973-1.0734-.7718-1.5608-.9065 2.6186-.5802 3.3445-3.4447 3.3445-5.1696 0-2.5486-1.3793-4.2424-2.6704-4.9728-1.3171-.7407-2.1934-.8392-3.7645-.9583l-4.0445-.057h-6.5283v2.7454h2.883v16.7728h-2.9141v2.7765h8.9394v-2.7765h-2.883v-7.1795c.5082-.0362 1.0163-.0362 1.5089-.0362 4.3401 0 5.7453.5439 5.7453 7.0292v2.963h6.0978v-2.7765H59.5682zM72.158 92.2534c-.6585.2901-1.6541.3678-2.0896.3678-2.5304 0-3.666-1.4452-3.666-2.8749 0-1.7301 1.3585-2.7246 3.723-2.7246 2.3645 0 3.8993 1.0929 3.8993 2.7246 0 .6475-.2437 1.8286-1.8667 2.5123m4.4697-.2227v-5.812c0-1.9166 0-4.3045-2.6808-5.2473-1.2341-.4714-2.3282-.6734-3.6504-.6734-2.4837 0-4.3089.632-4.9778.9065l-.223.0933 1.0837 2.274.2022-.0933c1.5141-.6889 2.9712-.9375 3.8216-.9375 3.3859 0 3.8371 1.528 3.8371 3.0199 0 .2124-.0104.4092-.0208.6009-1.0889-.8962-2.4889-1.3365-4.2623-1.3365-4.2259 0-6.1186 2.4916-6.1186 4.9573 0 2.9992 2.5045 5.0142 6.2379 5.0142.6896 0 2.8415-.114 4.0445-1.4815v1.0205h5.1127v-2.3103h-2.4112l.0052.0052zM85.1056 92.0299V72.1025H79.91v2.2533h2.5045v17.6741h-2.4786v2.2481h7.8194v-2.2481h-2.6497z" fill="#fff"/><path d="M101.304 87.4724c0 3.1391-2.2293 4.8278-4.3293 4.8278-1.4986 0-2.266-.6682-3.0801-1.3779-.8866-.7666-1.3326-1.958-1.3326-3.5431 0-2.8904 2.3697-4.6775 4.563-4.6775 2.6186 0 4.185 2.4242 4.185 4.7656m-3.9775-7.195c-2.4008 0-3.9719 1.295-4.7394 2.1393v-1.9632H87.522v2.1911h2.3541v11.4167l-.026 2.6003H87.496v2.3155h7.7416v-2.3155h-2.6134v-4.0766c1.1823 1.3364 2.9193 2.1445 4.6512 2.1445 3.8376 0 6.9586-3.4136 6.9586-7.6146 0-4.2009-3.583-6.8427-6.9015-6.8427M118.727 92.3619l-.026-6.3247c0-1.87 0-3.6415-1.815-4.719-.887-.549-1.69-.6267-2.359-.6267-2.188 0-3.708 1.1758-4.937 2.2481V72.3154h-5.133v2.2585h2.411v6.2263l-.057 11.5669h-2.385v2.2481h7.762v-2.2481h-2.567v-6.9308c.996-1.1655 2.598-2.3828 4.169-2.3828.301 0 .996 0 1.556.5646.467.4248.487.5957.596 2.7713v5.9777h-2.437v2.2481h7.871v-2.2481h-2.649v-.0052zM141.106 87.8813v3.9523h-7.083V75.211h3.604v-2.7764h-9.904v2.7764h3.028v16.6226h-3.028v2.7765h16.287l.125-6.7288h-3.029zM155.76 89.8445c0 .6423-.244 1.8285-1.862 2.5019-.648.2901-1.649.3678-2.089.3678-2.531 0-3.666-1.4401-3.666-2.8697 0-1.7353 1.358-2.7299 3.728-2.7299s3.894 1.0982 3.894 2.7299m2.608 2.2843v-5.8067c0-1.9166 0-4.3046-2.686-5.2525-1.249-.4662-2.338-.6682-3.65-.6682-2.515 0-4.319.6371-4.978.9116l-.218.0933 1.079 2.274.202-.0932c1.53-.6993 2.976-.948 3.827-.948 3.386 0 3.842 1.5281 3.842 3.0251 0 .2124-.01.4092-.021.6009-1.083-.8961-2.483-1.3312-4.262-1.3312-4.226 0-6.119 2.4915-6.119 4.9624 0 2.994 2.505 5.009 6.233 5.009.69 0 2.852-.1139 4.05-1.4815v1.0257h5.107V92.134h-2.411l.005-.0052zM174.318 91.7868V80.3442h-5.341v2.2378h2.588v6.9878c-1.022 1.2587-2.743 2.5019-4.351 2.5019-.658 0-1.177-.1968-1.535-.5853-.446-.4818-.643-1.2743-.56-2.2481v-8.8941h-5.102v2.2378h2.323l.031 7.9564c0 1.9684 1.457 3.9575 4.247 3.9575 1.981 0 3.951-1.2846 4.915-2.16v1.7508h5.486v-2.3051h-2.706l.005.0052zM188.681 80.7591c-.565-.1968-1.151-.2952-1.753-.2952-1.534 0-2.82.6785-3.831 2.0202v-1.7923h-5.284v2.1859h2.618v9.1997h-2.618v2.3051h5.377l2.764.0673v-2.3103h-2.769v-6.3662c1.12-1.9062 2.157-2.7194 3.448-2.7194.534 0 1.006.0932 1.405.2745l.254.1191.576-2.621-.192-.0674h.005zM199.477 86.1463h-4.838l-1.032-.0259-2.328.0207c.632-2.2999 2.639-3.4965 4.361-3.4965 2.006 0 3.292 1.1811 3.837 3.5069m2.971 2.4242v-.2227c.078-2.502-.648-4.6102-2.095-6.102-1.27-1.3054-3.007-2.0254-4.89-2.0254-3.987 0-7.114 3.253-7.114 7.4022 0 4.6102 3.77 7.0965 7.322 7.0965 2.8 0 4.952-1.2483 6.575-3.8228l.14-.2175-2.188-.9946-.104.1761c-.332.575-1.602 2.445-4.102 2.445-2.318 0-4.246-1.5488-4.781-3.7969h3.132l8.105.0621zM217.35 92.362v-7.1173c0-1.1085 0-2.6211-1.441-3.6933-.726-.5543-1.659-.8702-2.562-.8702-.477 0-2.872.1087-5.159 2.1548v-1.9787h-5.165v2.1963h2.443v9.3084h-2.385v2.2481h7.71V92.362h-2.577v-6.8531c.643-.7304 2.214-2.4553 4.304-2.4553 2.089 0 2.084 1.6472 2.084 2.8438v6.4646h-2.458v2.2481H220V92.362h-2.65zM20.2951 5.18017H199.71V56.0288H20.2951V5.18017zM15.1098 61.2089H204.895V0H15.1046v61.2141l.0052-.0052z" fill="#fff"/><path d="M144.643 47.7869h-21.939v-5.0041h6.258V17.3119h-6.258v-4.8641h15.55v30.335h6.389v5.0041zM99.2873 43.8496c-4.8897 0-8.4572-3.9264-8.4624-8.117-.0103-3.3877 3.163-7.8166 8.6542-7.8166 5.1129 0 8.5039 4.1233 8.5299 8.0704.021 3.1339-2.52 7.8632-8.7165 7.8632m-.0312-21.1084c-9.4682 0-16.3387 5.439-16.3387 12.9396 0 6.304 5.7608 13.0017 16.4373 13.0017 5.4751 0 10.1581-1.6783 13.1811-4.7189 2.25-2.2688 3.479-5.2318 3.448-8.3398-.062-7.2209-7.41-12.8774-16.7328-12.8774M168.459 43.8496c-4.89 0-8.458-3.9264-8.463-8.117-.01-3.3877 3.163-7.8166 8.649-7.8166 5.113 0 8.504 4.1233 8.53 8.0704.021 3.1339-2.52 7.8632-8.716 7.8632zm-.032-21.1084c-9.468 0-16.338 5.439-16.338 12.9396 0 6.304 5.761 13.0017 16.437 13.0017 5.476 0 10.158-1.6783 13.181-4.7189 2.255-2.2688 3.479-5.2318 3.448-8.3398-.062-7.2209-7.41-12.8774-16.733-12.8774M59.2208 29.6615H48.197l.0311-11.9092h11.0446c5.8904 0 8.1823 1.6162 8.1512 6.0349-.0363 6.3094-3.4586 5.8743-8.2083 5.8743m7.5135-15.8202c-3.4119-.6372-5.6209-.6372-8.9031-.6372H31.3604v4.6414h7.1349l-.0311 25.1394h-7.1764v4.6777h24.5419l.0674-.3781.0155-4.2478h-7.6897l.0259-7.2108 7.9386.1088c8.4105 0 11.7498.43 15.4936-2.2586 2.743-1.8804 5.1645-4.6828 5.2008-9.0497.0519-7.2626-6.746-10.1428-10.1579-10.7851M28.0782 117.569c-1.006.125-1.3223.322-1.3741 1.057-.0363.596-.083 1.191-.083 2.642v6.49h-.8037l-6.8134-8.262v3.813c0 1.429.0363 2.103.0829 2.574.0519.756.4148 1.083 1.6023 1.161v.549h-3.9875v-.549c.9489-.083 1.3482-.327 1.4363-1.104.0571-.564.0934-1.202.0934-2.636v-3.958c0-.508-.0312-.834-.3371-1.233-.2955-.409-.6689-.471-1.3896-.544v-.549h2.9037l6.4142 7.547v-3.299c0-1.451-.0208-2.041-.0726-2.606-.0467-.709-.3474-1.01-1.6749-1.093v-.549h3.9979v.549h.0052zM37.2716 119.501c-.4874 1.249-.9748 2.477-1.4052 3.699h2.7326l-1.3274-3.699zm1.4934 8.086v-.549c1.0318-.14 1.0785-.316.8503-.984-.1814-.539-.4614-1.3-.7363-2.082h-3.277c-.2075.585-.4408 1.207-.6223 1.766-.3474 1.036-.0155 1.166 1.2808 1.295v.549h-3.9097v-.549c1.0215-.129 1.2808-.264 1.8356-1.668l3.36-8.454.6845-.129c1.0318 2.813 2.1363 5.77 3.1785 8.521.5704 1.476.7156 1.595 1.8045 1.73v.549h-4.4541l.0052.005zM48.0414 127.593v-.549c1.2652-.125 1.4052-.213 1.4052-1.586v-6.288c0-1.378-.1504-1.487-1.4052-1.601v-.549h4.7704v.549c-1.26.125-1.4104.223-1.4104 1.601v6.288c0 1.368.14 1.446 1.4104 1.586v.549h-4.7704zM63.8046 117.466c-1.706 0-3.0749 1.59-3.0749 4.527 0 2.937 1.286 5.159 3.5104 5.159 1.6852 0 2.9815-1.486 2.9815-4.517 0-3.289-1.4518-5.169-3.4118-5.169m.2696-.674c2.9141 0 5.3719 2.171 5.3719 5.387 0 3.476-2.4267 5.657-5.4601 5.657-3.1941 0-5.5119-2.372-5.5119-5.486 0-2.828 2.0015-5.558 5.6001-5.558zM83.7781 127.593v-.55c1.2652-.129 1.3327-.238 1.3275-1.797v-6.444c-1.2289 2.859-2.8053 6.496-3.7645 8.796h-.4926c-.8763-2.243-2.266-5.776-3.4534-8.656-.2333 5.315-.2385 6.418-.2385 6.905.0155.891.3681 1.083 1.5452 1.196v.55h-3.9564v-.55c.9282-.088 1.3378-.269 1.4675-1.212.0777-.569.1244-1.372.5133-6.941.0518-.803-.0778-1.186-1.483-1.316v-.549h3.2615l3.2823 7.548 3.386-7.548h3.2148v.549c-1.3274.14-1.4881.28-1.457 1.523l.1089 6.149c.0311 1.559.0933 1.632 1.4415 1.797v.55H83.773h.0051zM93.9828 127.593v-.549c1.2652-.125 1.4052-.213 1.4052-1.586v-6.288c0-1.378-.1504-1.487-1.4052-1.601v-.549h4.7704v.549c-1.26.125-1.4104.223-1.4104 1.601v6.288c0 1.368.14 1.446 1.4104 1.586v.549h-4.7704zM122.937 123.143c-.949.15-1.047.228-1.047 1.285v1.289c0 .58.015 1.13.098 1.565-.886.176-2.504.554-3.832.554-3.759 0-5.963-2.316-5.963-5.553 0-3.579 2.899-5.491 6.275-5.491 1.431 0 2.779.327 3.303.384.031.673.145 1.828.264 2.766l-.581.108c-.389-1.383-.943-2.04-1.949-2.382-.374-.13-.996-.202-1.421-.202-2.142 0-3.661 1.709-3.661 4.568 0 2.86 1.115 5.134 3.941 5.134.404 0 .85-.073 1.156-.244.275-.165.436-.404.436-.968v-1.399c0-1.155-.192-1.274-1.623-1.419v-.555h4.604v.56zM136.761 124.785c-.119.632-.581 2.341-.736 2.808h-7.856v-.549c1.442-.114 1.571-.218 1.571-1.591v-6.288c0-1.373-.16-1.487-1.405-1.596v-.549h4.802v.549c-1.276.119-1.442.218-1.442 1.596v6.418c0 .927.068 1.274.97 1.29.026.01.918.015.995.015.892 0 1.131-.16 1.514-.59.343-.358.737-1.042 1.012-1.684l.575.171zM146.577 119.501c-.488 1.249-.975 2.477-1.405 3.699h2.732l-1.327-3.699zm1.493 8.086v-.549c1.032-.14 1.079-.316.851-.984-.182-.539-.462-1.3-.737-2.082h-3.277c-.207.585-.441 1.207-.622 1.766-.347 1.036-.016 1.166 1.281 1.295v.549h-3.91v-.549c1.022-.129 1.281-.264 1.836-1.668l3.365-8.454.684-.129c1.032 2.813 2.137 5.77 3.179 8.521.57 1.476.715 1.595 1.804 1.73v.549h-4.454v.005zM163.507 119.631c-.306-1.052-.763-2.196-2.261-2.196-1.053 0-1.608.756-1.608 1.647 0 .974.638 1.523 2.038 2.232 1.805.912 2.816 1.725 2.816 3.31 0 1.844-1.545 3.212-3.785 3.212-1.012 0-1.909-.275-2.634-.518-.109-.404-.353-1.891-.467-2.694l.586-.139c.321 1.046 1.161 2.693 2.784 2.693 1.048 0 1.691-.684 1.691-1.735 0-1.052-.612-1.585-1.997-2.336-1.69-.917-2.738-1.72-2.738-3.347 0-1.626 1.281-2.973 3.609-2.973 1.043 0 1.903.244 2.256.301.067.595.161 1.372.29 2.408l-.575.13-.005.005zM175.988 119.631c-.306-1.052-.763-2.196-2.261-2.196-1.053 0-1.608.756-1.608 1.647 0 .974.638 1.523 2.038 2.232 1.805.912 2.816 1.725 2.816 3.31 0 1.844-1.545 3.212-3.785 3.212-1.012 0-1.909-.275-2.635-.518-.108-.404-.352-1.891-.466-2.694l.586-.139c.321 1.046 1.161 2.693 2.784 2.693 1.048 0 1.691-.684 1.691-1.735 0-1.052-.612-1.585-1.997-2.336-1.69-.917-2.738-1.72-2.738-3.347 0-1.626 1.281-2.973 3.609-2.973 1.043 0 1.903.244 2.256.301.062.595.161 1.372.29 2.408l-.575.13-.005.005zM191.222 124.888c-.088.436-.534 2.238-.685 2.704h-8.218v-.538c1.483-.135 1.586-.239 1.586-1.596v-6.288c0-1.404-.186-1.497-1.327-1.601v-.549h5.154c1.639 0 2.225-.015 2.442-.031.016.332.094 1.627.156 2.585l-.581.083c-.145-.555-.383-1.109-.622-1.414-.28-.399-.55-.503-1.426-.503h-1.224c-.575 0-.627.036-.627.565v3.465h1.659c1.017 0 1.146-.243 1.374-1.383h.586v3.533h-.586c-.243-1.192-.373-1.378-1.389-1.378h-1.644v2.953c0 1.129.145 1.383 1.084 1.398h1.275c.934 0 1.151-.124 1.504-.559.368-.425.7-1.052.949-1.58l.56.14v-.006zM202.505 119.631c-.306-1.052-.762-2.196-2.261-2.196-1.052 0-1.607.756-1.607 1.647 0 .974.638 1.523 2.038 2.232 1.804.912 2.815 1.725 2.815 3.31 0 1.844-1.545 3.212-3.785 3.212-1.011 0-1.908-.275-2.634-.518-.109-.404-.358-1.891-.467-2.694l.586-.139c.322 1.046 1.162 2.693 2.785 2.693 1.047 0 1.69-.684 1.69-1.735 0-1.052-.612-1.585-1.996-2.336-1.691-.917-2.738-1.72-2.738-3.347 0-1.626 1.281-2.973 3.609-2.973 1.042 0 1.903.244 2.255.301.063.595.161 1.372.291 2.408l-.576.13-.005.005zM93.1376 156.866c-.2023-.285-.2334-.617-.2334-.891v-.953c0-.513 0-1.031-.0052-1.544 0-.295.0052-.591.0104-.876.0104-.512.0259-1.046-.0104-1.564-.0155-.228 0-.461.0104-.678v-.083c.0104-.083.0467-.145.0778-.208.0104-.025.0259-.051.0415-.077l.1037-.239.1918.177c.0311.026.0571.051.083.072.057.047.1141.093.1555.161.1712.238.3475.481.5186.72.5496.756 1.1148 1.543 1.6385 2.341l.0882.135c.0933.145.1866.29.2852.43.4926.683.9489 1.409 1.3896 2.108l.2333.373c.0674.104.14.217.166.352.0155.083.0155.161 0 .238.0985.006.197.016.2955.016.4408.005.8815.01 1.3223.01.0985 0 .2126 0 .3214-.005-.0103-.015-.0207-.026-.0311-.041-.1296-.161-.1918-.347-.1918-.58v-.275c-.0052-.622-.0104-1.264-.0519-1.891-.0155-.233 0-.466.0156-.694.0104-.14.0207-.285.0207-.43.0104-.73.0104-1.466.0104-2.196v-.254-.896c0-.86.0052-1.746 0-2.616-.0052-.497.14-.953.4408-1.378-.1401.016-.2852.021-.4304.021-.5652 0-1.1304 0-1.6956-.01h-.5756c.0519.088.1037.186.14.295.1089.368.1452.678.1193.979-.0156.166-.0104.331-.0052.507v.441c0 1.067 0 2.134-.0052 3.201v.026c0 .088.0104.269-.2126.404l-.1503.093-.0986-.145c-.4252-.621-.8711-1.243-1.3015-1.849-.2489-.352-.5029-.705-.7518-1.062-.2023-.285-.3993-.57-.6015-.855-.4771-.673-.9697-1.372-1.4519-2.077-.0311 0-.0674-.005-.1037-.005-.7259-.01-1.4571-.016-2.183-.021.2282.29.3319.653.3215 1.119v.109c-.0052.311-.0156.637-.0104.953 0 .352.0104.704.0156 1.062.0104.533.0155 1.083.0207 1.626 0 .793-.0052 1.586-.0104 2.378 0 .456-.0051.917-.0103 1.373v.228c0 .455-.0052.927 0 1.388.0104.378-.0985.694-.3319.969-.0207.02-.0363.046-.0518.067h.1763c.7778.01 1.5296.021 2.2867.026M175.168 155.011v-1.512c0-.296.005-.591.011-.876.01-.513.026-1.046-.011-1.564-.015-.228 0-.461.011-.679v-.083c.01-.082.046-.145.077-.207.011-.026.026-.052.042-.077l.104-.239.191.182c.032.025.058.051.083.072.057.052.115.093.156.161.171.243.347.481.519.72.549.756 1.114 1.543 1.638 2.341l.088.135c.094.145.187.29.285.43.493.683.949 1.409 1.39 2.108l.233.373c.063.103.135.217.166.352.016.083.016.161 0 .238.099.006.197.016.296.016.441.005.881.01 1.327.01.099 0 .213 0 .322-.01-.011-.016-.021-.026-.031-.042-.13-.16-.192-.347-.192-.58v-.274c-.005-.622-.011-1.264-.052-1.891-.016-.233 0-.471.016-.694.01-.14.02-.285.02-.43.011-.72.011-1.435.011-2.155v-.295-.896c0-.86.005-1.746 0-2.616-.006-.497.14-.953.44-1.378-.14.016-.285.021-.43.021-.565 0-1.13 0-1.696-.011h-.575c.052.088.104.187.14.296.109.367.145.678.119.979-.015.165-.01.331-.005.507v.435c0 1.067 0 2.135-.005 3.202v.026c0 .088.01.269-.213.404l-.15.093-.099-.145c-.425-.622-.871-1.243-1.301-1.85-.249-.352-.503-.704-.752-1.056-.197-.285-.399-.565-.596-.845-.477-.678-.975-1.377-1.457-2.082-.032 0-.068-.005-.104-.01-.726-.011-1.457-.016-2.183-.021.228.29.332.653.321 1.119v.135c-.005.305-.015.616-.01.927 0 .352.01.704.016 1.062.01.533.015 1.082.02 1.626 0 .798-.005 1.596-.01 2.388 0 .456-.005.907-.01 1.362v.239c0 .45-.006.917 0 1.372.01.379-.099.695-.332.969-.021.021-.037.047-.052.067h.176c.778.011 1.53.021 2.287.026-.202-.285-.234-.616-.234-.891v-.984h-.005zM122.056 156.881c1.161 0 2.323 0 3.484.01.177 0 .358 0 .534-.005.156 0 .311-.005.472-.005.244 0 .493.005.747.031.129-.767.285-1.559.461-2.393-.16.109-.337.186-.513.243-.379.135-.788.197-1.327.197-1.276 0-2.583 0-3.988-.005h-.109c-.176 0-.373.005-.586-.067l-.088-.031-.026-.088c-.062-.202-.057-.399-.046-.586v-.264-.668-.156c0-.196-.011-.424.103-.647l.042-.083.098-.016s.047-.01.073-.01c.057-.01.114-.021.181-.021h3.06c.285 0 .56.078.834.239v-.384c.011-.575.016-1.15.021-1.73v-.285c-.269.228-.518.296-.928.296h-.01c-.182 0-.363-.011-.545-.016-.171-.01-.347-.015-.518-.015h-1.903c-.073 0-.146-.016-.213-.026-.026-.006-.057-.011-.083-.016l-.119-.021-.031-.108c-.057-.197-.047-.384-.037-.555 0-.083.011-.16.006-.233-.011-.259-.011-.528 0-.797v-.177c-.006-.196-.016-.414.103-.642l.052-.098h.42c.208-.011.42-.016.628-.011h1.394c.939 0 1.878.005 2.816 0 .404 0 .783.083 1.12.254-.275-.715-.254-1.461-.238-2.181v-.072c-.078 0-.161.005-.244.01-.327.016-.633.026-.944.031-1.649.005-3.033.005-4.345 0h-.84c-.674.005-1.374.016-2.064-.046.301.507.358 1.067.368 1.595.005.311 0 .622 0 .932v1.435c-.01.555-.015 1.109-.015 1.663 0 1.28-.011 2.564-.011 3.844 0 .399-.057.782-.16 1.144-.052.171-.114.353-.239.513h3.173l-.02.021zM162.884 156.834h1.483c1.162 0 2.323 0 3.485.011.176 0 .358 0 .534-.005.155 0 .311-.006.472-.006.243 0 .492.006.746.031.13-.766.286-1.559.462-2.393-.161.109-.337.187-.513.244-.379.134-.789.197-1.333.197-1.276 0-2.582 0-3.987-.006h-.109c-.177 0-.374.006-.586-.067l-.088-.031-.026-.088c-.063-.202-.057-.399-.047-.585v-.265-.668-.155c0-.197-.01-.425.104-.648l.041-.083.099-.015s.046-.005.072-.01c.057-.011.114-.021.182-.021h3.059c.296 0 .565.078.84.238v-.383c.01-.575.016-1.15.021-1.73v-.285c-.275.228-.529.295-.939.295-.181 0-.363-.01-.544-.016-.171-.01-.348-.015-.519-.015h-1.903c-.067 0-.145-.016-.212-.026-.026-.005-.057-.01-.083-.016l-.12-.02-.031-.114c-.057-.197-.041-.383-.036-.554 0-.083.01-.161.005-.234-.01-.259-.01-.528 0-.797v-.176c-.005-.192-.015-.415.104-.643l.052-.098h.42c.207-.01.42-.016.627-.01h1.395c.939 0 1.877.005 2.816 0 .409 0 .783.082 1.12.253-.275-.714-.254-1.46-.239-2.18v-.073c-.078 0-.161.005-.244.01-.326.016-.632.026-.943.032-1.649.005-3.034.005-4.346 0h-.84c-.674.005-1.374.015-2.063-.047.3.508.358 1.067.368 1.595.005.311 0 .622 0 .933l-.01 1.435c0 .554-.006 1.108-.011 1.662 0 1.28-.01 2.564-.01 3.844 0 .399-.057.782-.161 1.145-.052.171-.114.352-.238.512h1.69M197.719 156.834h1.483c1.161 0 2.323 0 3.484.011.177 0 .358 0 .535-.005.155 0 .311-.006.471-.006.244 0 .493.006.747.031.13-.766.285-1.559.462-2.393-.161.109-.337.187-.514.244-.378.134-.788.197-1.327.197-1.276 0-2.582 0-3.988-.006h-.109c-.176 0-.373.006-.585-.067l-.089-.031-.026-.088c-.062-.202-.057-.399-.046-.585v-.265-.668-.155c0-.197-.011-.425.103-.648l.042-.083.098-.015s.047-.005.073-.01c.057-.011.114-.021.182-.021h3.059c.295 0 .565.078.84.238v-.383c.01-.575.015-1.15.021-1.73v-.285c-.275.228-.529.295-.939.295-.181 0-.363-.01-.539-.016-.171-.01-.348-.015-.519-.015h-1.903c-.067 0-.145-.016-.212-.026-.026-.005-.057-.01-.083-.016l-.12-.02-.031-.114c-.057-.197-.046-.383-.036-.554 0-.083.01-.161.005-.234-.01-.259-.01-.528 0-.797v-.176c-.005-.192-.015-.415.104-.643l.052-.098h.42c.207-.01.415-.016.627-.01h1.395c.939 0 1.877.005 2.816 0 .409 0 .783.082 1.12.253-.275-.714-.254-1.46-.239-2.18v-.073c-.078 0-.161.005-.244.01-.326.016-.632.026-.943.032-1.649.005-3.034.005-4.345 0h-.841c-.674.005-1.374.015-2.063-.047.301.508.358 1.067.368 1.595.005.311 0 .622 0 .933l-.01 1.435c0 .554-.006 1.108-.011 1.662 0 1.28-.01 2.564-.01 3.844 0 .399-.057.782-.161 1.145-.052.171-.114.352-.238.512h1.69M58.0282 156.436c.6845.243 1.4208.476 2.183.528 1.0941.072 2.2608.078 3.3963-.414.4408-.192.9023-.41 1.2601-.788.2592-.269.4563-.58.6637-.906.0518-.083.1089-.171.1607-.254 0-.005.0104-.036.0156-.052v-.031c.1555-.539.2178-.984.2074-1.409-.0104-.378-.1089-.72-.3111-1.041-.5912-.969-1.483-1.528-2.7275-1.72-.3837-.057-.7881-.078-1.1822-.093-.2178-.011-.4408-.016-.6585-.036-.5289-.037-.9178-.14-1.2704-.332-.2593-.14-.4252-.342-.4823-.58-.057-.244.0052-.513.1815-.756.1659-.233.3889-.41.6741-.529.42-.176.8763-.274 1.4052-.295.7259-.026 1.566-.036 2.3904.202.4045.119.866.254 1.2548.554v-.051c.026-.228.0467-.441.0571-.653.0259-.767.1711-1.419.4355-1.989-.4096.197-.8348.165-1.1666.114-.1297-.021-.2489-.057-.3682-.094-.0674-.02-.1348-.041-.2022-.057-.1815-.041-.3267-.072-.4563-.093-.1452-.021-.2956-.041-.4667-.052-.98-.067-2.1156-.108-3.1993.301-1.037.394-1.7734 1.036-2.2556 1.968-.1244.239-.2074.513-.2333.767-.0311.295-.0208.606-.0104.901 0 .093.0052.187.0104.275 0 .057.0207.124.0518.191.0934.197.1919.404.3111.591.4304.699 1.0371 1.176 1.8045 1.414.3163.098.6534.166.98.228.1297.026.2593.052.3837.078.0571.01.1193.01.1919.015h.0415c.2489 0 .5029.005.7518.011h.4875c.3837.01.7051.082.9852.227.2592.135.4407.337.5133.581.0778.243.0311.518-.1193.787-.1711.295-.4252.518-.7622.658-.477.197-.9178.29-1.3274.28h-.1711c-.1919-.006-.3837-.011-.5756-.011-.617 0-1.2548-.145-2.0067-.466-.4252-.181-.7674-.456-1.0163-.813-.0104-.016-.0207-.031-.0363-.052-.057.751-.2437 1.466-.4408 2.129-.0622.218-.14.44-.2644.658.0985-.026.197-.036.2904-.036.2229 0 .4304.062.617.124M139.701 154.607s.011-.036.016-.052v-.026c.155-.538.218-.984.207-1.408-.01-.379-.109-.72-.311-1.042-.591-.968-1.483-1.528-2.727-1.719-.384-.057-.789-.078-1.183-.094-.217-.01-.44-.015-.658-.036-.529-.036-.918-.14-1.271-.331-.259-.14-.425-.342-.482-.581-.057-.243 0-.512.182-.756.166-.233.389-.409.674-.528.42-.176.876-.275 1.405-.295.726-.026 1.566-.037 2.39.202.405.119.866.253 1.255.554 0-.016 0-.036.005-.052.026-.228.047-.44.052-.653.026-.782.166-1.414.436-1.989-.41.197-.835.166-1.167.114-.13-.021-.249-.057-.368-.093-.067-.021-.135-.041-.202-.057-.182-.041-.327-.073-.457-.093-.145-.021-.295-.042-.466-.052-.98-.067-2.116-.109-3.2.3-1.037.394-1.773 1.036-2.255 1.969-.125.238-.208.513-.228.766-.031.296-.021.606-.011.907 0 .093.006.181.011.274 0 .057.02.125.052.192.093.187.191.404.311.591.43.699 1.037 1.175 1.804 1.414.316.098.654.165.98.228.13.026.259.051.384.077.057.011.119.011.192.016h.041c.249 0 .503.005.752.01h.487c.384.011.706.083.986.228.259.135.44.337.513.58.078.244.031.518-.119.788-.171.295-.425.518-.762.658-.478.196-.908.29-1.328.279h-.171c-.192-.005-.384-.01-.576-.01-.617 0-1.254-.145-2.006-.466-.425-.182-.768-.456-1.017-.814-.01-.015-.02-.031-.036-.051-.057.751-.244 1.466-.441 2.129-.062.217-.14.44-.264.657.098-.025.197-.036.29-.036.223 0 .431.062.617.125.685.243 1.421.476 2.183.528 1.094.078 2.261.078 3.397-.414.44-.192.902-.41 1.26-.788.259-.269.456-.575.663-.901.052-.083.109-.171.161-.254M152.934 154.902h-1.006l-.052-.036c-.207-.15-.202-.347-.202-.477v-.026c0-.243.01-.481.01-.72.005-.388.016-.782.016-1.17v-1.611c0-.228 0-.461-.005-.689 0-.446-.006-.896 0-1.347 0-.223.015-.445.031-.678.005-.104.01-.208.015-.316v-.151l.166-.015c.799-.088 1.644.026 2.074.098.711.119 1.266.529 1.701 1.243.539.891.757 1.813.643 2.751-.052.425-.145.818-.27 1.155-.295.798-.86 1.373-1.669 1.704-.467.192-.944.29-1.426.29h-.031m.767 1.964c.078 0 .151 0 .202-.016.483-.15.913-.285 1.343-.435.389-.14.742-.389 1.058-.736.093-.103.187-.202.28-.3.239-.259.467-.503.659-.777.648-.953.954-2.093.969-3.585.005-.709-.181-1.398-.368-1.978-.238-.741-.638-1.394-1.182-1.938l-.016-.015c-.202-.197-.409-.404-.632-.549-.928-.586-1.758-.845-2.614-.814-.238.011-.471 0-.7 0h-.238l-3.091-.067c.384.642.384.938.374 1.435v.161c-.011 1.398-.016 2.802-.021 4.201v1.357c-.005.279-.01.554-.01.834-.006.756-.011 1.543 0 2.31 0 .337-.073.616-.239.881-.005.01-.01.02-.021.031 1.406 0 2.806.005 4.211.01h.047l-.011-.01zM34.5442 150.152c-.446.083-.8971.099-1.3119.099h-.2696c-.3993 0-.7986-.011-1.1978-.021-.0674 0-.1348-.01-.1971-.021l-.197-.026-.0259-.124c-.0882-.394-.0934-1.632-.0104-2.17l.0207-.12.1245-.026s.0363-.01.057-.015c.0622-.016.1348-.036.2178-.036h.197c.6326 0 1.286-.005 1.929 0 .394.005.7259.072 1.0214.207.2541.114.446.269.5964.471.3059.425.2748.938-.083 1.311-.2437.254-.5341.414-.8711.476m3.08 6.714h.2385c-.057-.068-.114-.125-.1815-.166-.2851-.187-.4303-.461-.5289-.684-.2903-.663-.5963-1.336-.8918-1.989l-.2541-.565c-.1815-.398-.3215-.74-.4407-1.072l-.0571-.15.2334-.109c.057-.026.1037-.052.1555-.067.6274-.244 1.1511-.632 1.5971-1.192.2541-.321.3941-.673.42-1.077.0207-.28.0311-.534.0311-.777 0-.767-.1919-1.373-.5808-1.797-.0363-.037-.0622-.078-.0933-.12-.0207-.031-.0467-.062-.0726-.093l-.0829-.088c-.1038-.109-.2075-.212-.3163-.295-.7623-.575-1.6956-.881-2.8519-.933-.5912-.025-1.1978-.015-1.7786 0-.3007.006-.6067.016-.9074.016h-2.2348c.2281.238.337.565.3318.974v1.528c0 1.171 0 2.341-.0052 3.512v2.574c-.0103.555-.0103 1.13 0 1.689 0 .337-.1089.606-.3474.824l-.0052.005c.6223.026 1.8408.036 2.5927.015-.026-.031-.0467-.062-.0726-.088-.166-.207-.2437-.435-.2437-.699v-1.86-1.336c0-.093.0155-.187.0363-.275.0051-.041.0155-.082.0207-.124l.0207-.15.2956-.01c.0985 0 .1918-.006.28-.006h1.1096c.2334 0 .3993.119.4823.332.0103.036.0259.067.0415.103l.2851.669 1.0838 2.538c.0155.041.0363.083.0466.124.0934.306.0726.565-.0674.788h.083c.8711.01 1.7422.025 2.6185.041h.026l-.0156-.01zM112.847 150.173c-.446.083-.897.098-1.312.098h-.27c-.399 0-.798-.01-1.198-.02-.067 0-.134-.011-.197-.021l-.197-.026-.026-.124c-.088-.394-.093-1.632-.01-2.171l.021-.119.124-.026s.036-.01.057-.015c.062-.016.135-.037.218-.037h.197c.633 0 1.286-.005 1.929 0 .394.006.726.073 1.021.208.255.114.446.269.597.471.306.425.275.938-.083 1.311-.244.253-.534.414-.871.476m3.08 6.713h.238c-.057-.067-.114-.124-.181-.165-.285-.187-.431-.461-.529-.684-.291-.663-.596-1.337-.892-1.989l-.254-.565c-.182-.399-.322-.741-.441-1.072l-.057-.15.233-.109c.058-.026.104-.052.156-.067.627-.244 1.151-.632 1.597-1.192.254-.321.394-.673.42-1.077.021-.28.031-.534.031-.777 0-.767-.192-1.373-.581-1.798-.036-.036-.062-.077-.093-.119-.021-.031-.047-.062-.072-.093l-.083-.088c-.104-.109-.208-.213-.317-.295-.762-.575-1.695-.881-2.852-.933-.591-.026-1.197-.015-1.778 0-.301.005-.607.016-.908.016h-2.234c.228.238.337.564.331.974v1.528c0 1.17 0 2.341-.005 3.512v2.574c-.01.554-.01 1.129 0 1.689 0 .336-.109.606-.347.823l-.005.006c.622.025 1.84.036 2.592.015-.026-.031-.046-.062-.072-.088-.166-.207-.244-.435-.244-.699v-1.86-1.336c0-.094.016-.187.036-.275.005-.041.016-.083.021-.124l.021-.15.295-.011c.099 0 .192-.005.28-.005H111.343c.233 0 .399.119.482.332.011.036.026.067.042.103l.285.668 1.084 2.539c.015.041.036.083.046.124.094.306.073.565-.067.787h.083c.871.011 1.742.026 2.618.042h.026l-.015-.011zM22.0944 152.535c-.0311 0-.0623.01-.0985.016-.0726.015-.1556.031-.2438.031h-.0311c-.28-.016-.5652-.011-.8452-.005-.4666 0-.9489.01-1.4363-.057l-.1504-.021-.0103-.145c-.0208-.259.0829-.466.1711-.643.0518-.108.1037-.212.1244-.316.0415-.212.1245-.409.2074-.6.0415-.094.083-.192.1193-.285.0467-.125.0933-.244.1452-.363.0726-.181.1452-.347.197-.523.0882-.285.1971-.585.4045-.901l.14-.218.1607.202c.1971.249.2904.503.3682.725l.0363.109c.7726 2.088.8867 2.6.8918 2.813v.16l-.1607.021h.0104zm3.6867 3.776c-.2437-.606-.4771-1.212-.7467-1.932-.1918-.513-.3837-1.031-.5756-1.543-.1451-.389-.2903-.777-.4355-1.166-.0882-.238-.1815-.477-.2696-.71-.166-.43-.3371-.87-.4926-1.315-.3163-.891-.6845-1.86-1.1615-3.041-.0986-.249-.1971-.565-.1297-.906h-2.2244c.0674.326.0362.429-.1452.875-.0882.217-.1763.43-.2593.647-.1089.27-.2178.534-.3215.803-.1244.306-.2437.612-.363.917-.1451.363-.2903.731-.4355 1.093-.1037.264-.2126.523-.3215.788-.1089.259-.2126.523-.3215.787-.0674.171-.1348.342-.197.513-.1193.31-.2385.637-.3837.948-.4097.896-.7623 1.813-1.0786 2.672-.1452.389-.3318.674-.5859.902l-.0726.062c-.0518.047-.1037.088-.1504.135.8919-.006 1.7941-.011 2.6964-.021-.1763-.357-.0882-.705.0155-.979l.0778-.207c.083-.218.1659-.435.2541-.653.0311-.078.0674-.145.1089-.218.0207-.031.0363-.067.057-.103l.0467-.088.0985-.011c.0518 0 .1037-.01.1607-.02.1245-.016.2489-.031.3837-.031 1.2238 0 2.4527.015 3.6764.026.083 0 .1555.01.2333.02.0311 0 .0622.011.0985.016l.1141.015.0363.104c.0519.14.1037.274.1608.414.1296.337.2489.653.3629.979.0934.28.0726.539-.0518.767.6844.041 1.903.041 2.5356.016-.0363-.037-.0726-.078-.1089-.114-.0985-.114-.2126-.259-.28-.425M189.433 156.912c.436.01.881.01 1.369 0 .14 0 .29-.026.43-.062.783-.218 1.405-.528 1.914-.953.243-.202.492-.326.772-.378-.021-.052-.036-.099-.057-.151-.036-.093-.067-.186-.088-.284-.114-.508-.223-1.01-.337-1.518l-.156-.694c-.363 1.041-1.405 1.833-2.297 2.025-.544.119-1.104.109-1.706-.021-.855-.186-1.472-.652-1.83-1.372-.104-.213-.192-.441-.264-.658-.192-.534-.255-1.14-.187-1.901.036-.466.119-1.072.399-1.663.348-.741.908-1.228 1.654-1.461.705-.217 1.291-.264 1.846-.145.062.016.125.026.187.036.098.016.197.032.301.063.751.202 1.311.544 1.706 1.056.212-.751.471-1.6.798-2.465h-.031c-.332.026-.674-.062-1.001-.259-.674-.399-1.431-.596-2.338-.596-.26 0-.529.016-.814.047-1.234.134-2.318.704-3.22 1.688-.457.498-.809 1.083-1.043 1.73-.3.84-.357 1.715-.368 2.539 0 .067.005.134.016.207.01.124.026.269 0 .419 0 .021.01.083.026.125v.02l.264.933c.156.549.425 1.041.716 1.538.306.534.757.995 1.42 1.451.477.326 1.027.502 1.499.632.176.046.311.072.43.072M43.1362 147.712h.1918c.1193 0 .2645.016.4252.099l.0933.046.0104.291c.0052.145.0104.284.0156.424v1.746c0 1.58 0 3.16.0051 4.74 0 .424-.1088.844-.3629 1.357-.0882.176-.1971.326-.3267.445l2.2763-.015c.3578 0 .7156 0 1.0734-.011-.503-.347-.7674-.839-.783-1.476-.0052-.192-.0155-.388-.0311-.58l-.0156-.249c-.0051-.134-.0155-.269-.0259-.404-.0207-.295-.0415-.595-.0467-.896-.0103-.482-.0051-.974 0-1.45v-.782-1.611c-.0103-.415-.0155-.834-.0155-1.249 0-.078.0207-.145.0363-.197.0052-.015.0104-.036.0155-.051l.026-.104.1037-.031s.0363-.01.0518-.016c.0415-.015.0934-.031.1504-.031h1.7734c.5496 0 .9852.114 1.3585.358-.2748-.689-.5237-1.528-.503-2.45h-.057c-.1815.015-.3526.025-.5237.025h-4.4334c-.6534 0-1.3534-.015-2.1312-.031-.1659 0-.3318-.026-.4874-.046h-.0207v.02c-.0156.146-.0259.28-.0415.415l-.0104.129c-.0155.171-.0363.353-.0674.529-.0363.197-.0881.393-.1348.58v.021c-.0259.077-.0518.15-.0778.222-.0415.13-.0829.249-.0933.363 0 .078-.0259.145-.0519.202.4097-.218.8867-.332 1.4519-.332h1.1978M73.3662 155.363c-.0052-.191-.0156-.388-.0311-.58l-.0156-.248c-.0052-.135-.0155-.27-.0259-.404-.0207-.296-.0415-.596-.0467-.897-.0104-.481-.0052-.973 0-1.45v-.782-1.611c-.0104-.414-.0155-.834-.0155-1.248 0-.078.0207-.145.0363-.197.0051-.016.0103-.037.0155-.052l.0259-.104.1038-.031s.0362-.01.0518-.015c.0415-.016.0933-.031.1504-.031h1.7733c.5497 0 .9852.114 1.3586.357-.2749-.689-.5237-1.528-.503-2.45h-.057c-.1815.015-.3526.026-.5238.026h-4.4333c-.6534 0-1.3534-.016-2.1312-.031-.1659 0-.3318-.026-.4874-.047h-.0207v.021c-.0156.145-.026.28-.0415.414l-.0156.13c-.0155.171-.0363.352-.0674.528-.0363.197-.0881.394-.1348.58v.021c-.0259.078-.0518.15-.0778.223-.0415.129-.0829.248-.0933.362 0 .078-.0259.145-.0519.202.4097-.217.8867-.331 1.4519-.331h1.3897c.1192 0 .2644.015.4251.098l.0934.047.0104.29c.0051.145.0103.285.0155.425v1.745c0 1.58 0 3.16.0052 4.74 0 .425-.1089.844-.363 1.357-.0881.176-.197.327-.3266.446l2.2763-.016c.3578 0 .7155 0 1.0733-.01-.5029-.347-.7674-.839-.7829-1.477M52.1429 147.391c-.0104.373-.0104.751-.0104 1.119v1.803c-.0103.844-.0155 1.683-.0207 2.528v3.144c0 .29-.0207.595-.197.875.7829 0 1.5659-.01 2.3489-.015-.1815-.28-.2696-.596-.2645-.969 0-.295 0-.59-.0103-.891-.0052-.274-.0104-.549-.0104-.824 0-1.403.0052-2.807.0156-4.211 0-.414.0051-.829.0103-1.248.0052-.586.0104-1.171.0104-1.756 0-.409.1193-.782.3681-1.13 0-.005.0104-.01.0156-.02-.8711-.016-1.7474-.026-2.6497-.036.3526.574.4045.916.3837 1.626M84.9345 147.417c-.0104.373-.0104.751-.0104 1.119v1.803c-.0104.844-.0155 1.683-.0207 2.528v3.144c0 .29-.0208.596-.1971.875.783 0 1.566-.01 2.349-.015-.1815-.28-.2697-.596-.2645-.969 0-.295 0-.59-.0104-.891-.0051-.274-.0103-.549-.0103-.823 0-1.404.0052-2.808.0155-4.212 0-.414.0052-.829.0104-1.248.0052-.585.0104-1.171.0104-1.756 0-.409.1192-.777.3681-1.129 0-.006.0104-.011.0156-.021-.8712-.016-1.7475-.026-2.6497-.036.3526.575.4045.917.3837 1.626M143.388 147.371c-.011.373-.011.751-.011 1.119v1.802c-.01.845-.015 1.684-.02 2.528v3.144c0 .29-.021.596-.197.876.783 0 1.566-.011 2.349-.016-.182-.28-.27-.596-.265-.968 0-.296 0-.591-.01-.891-.005-.275-.011-.55-.011-.824 0-1.404.006-2.808.016-4.211 0-.415.005-.829.01-1.249.006-.585.011-1.17.011-1.756 0-.409.119-.782.368-1.129 0-.005.01-.01.015-.021-.871-.015-1.747-.026-2.649-.036.352.575.404.917.383 1.627M99.0747 135.306h-1.3638v1.363h1.3638v-1.363zM178.269 135.306h-1.364v1.363h1.364v-1.363zM194.654 135.306h-1.363v1.363h1.363v-1.363zM97.711 136.669h-1.3638v1.362h1.3638v-1.362zM176.905 136.669h-1.363v1.362h1.363v-1.362zM193.291 136.669h-1.364v1.362h1.364v-1.362zM96.3421 135.306h-1.3638v1.363h1.3638v-1.363zM175.542 135.306h-1.364v1.363h1.364v-1.363zM191.927 135.306h-1.364v1.363h1.364v-1.363zM94.9783 136.669h-1.3637v1.362h1.3637v-1.362zM174.173 136.669h-1.364v1.362h1.364v-1.362zM190.558 136.669h-1.364v1.362h1.364v-1.362zM93.6146 135.306h-1.3637v1.363h1.3637v-1.363zM172.809 135.306h-1.364v1.363h1.364v-1.363zM189.194 135.306h-1.363v1.363h1.363v-1.363zM92.2457 136.669H90.882v1.362h1.3637v-1.362zM171.445 136.669h-1.363v1.362h1.363v-1.362zM187.831 136.669h-1.364v1.362h1.364v-1.362zM90.882 135.306h-1.3638v1.363h1.3638v-1.363zM170.076 135.306h-1.363v1.363h1.363v-1.363zM186.462 135.306h-1.364v1.363h1.364v-1.363zM89.5183 136.669h-1.3638v1.362h1.3638v-1.362zM168.713 136.669h-1.364v1.362h1.364v-1.362zM185.098 136.669h-1.364v1.362h1.364v-1.362zM88.1494 135.306h-1.3638v1.363h1.3638v-1.363zM167.349 135.306h-1.364v1.363h1.364v-1.363zM183.734 135.306h-1.363v1.363h1.363v-1.363zM86.7857 136.669h-1.3638v1.362h1.3638v-1.362zM165.98 136.669h-1.364v1.362h1.364v-1.362zM182.365 136.669h-1.363v1.362h1.363v-1.362zM85.422 135.306h-1.3638v1.363h1.3638v-1.363zM164.616 135.306h-1.363v1.363h1.363v-1.363zM181.002 135.306h-1.364v1.363h1.364v-1.363zM84.0582 136.669h-1.3637v1.362h1.3637v-1.362zM163.253 136.669h-1.364v1.362h1.364v-1.362zM179.638 136.669h-1.364v1.362h1.364v-1.362zM82.6893 135.306h-1.3638v1.363h1.3638v-1.363zM161.884 135.306h-1.364v1.363h1.364v-1.363zM81.3255 136.669h-1.3637v1.362h1.3637v-1.362zM160.52 136.669h-1.364v1.362h1.364v-1.362zM79.9618 135.306h-1.3637v1.363h1.3637v-1.363zM159.156 135.306h-1.364v1.363h1.364v-1.363zM78.5929 136.669h-1.3637v1.362h1.3637v-1.362zM157.787 136.669h-1.363v1.362h1.363v-1.362zM77.2292 135.306h-1.3638v1.363h1.3638v-1.363zM156.424 135.306h-1.364v1.363h1.364v-1.363zM75.8603 136.669h-1.3637v1.362h1.3637v-1.362zM155.06 136.669h-1.364v1.362h1.364v-1.362zM74.4966 135.306h-1.3638v1.363h1.3638v-1.363zM153.691 135.306h-1.364v1.363h1.364v-1.363zM73.1329 136.669h-1.3638v1.362h1.3638v-1.362zM152.327 136.669h-1.363v1.362h1.363v-1.362zM71.7691 135.306h-1.3637v1.363h1.3637v-1.363zM150.964 135.306H149.6v1.363h1.364v-1.363zM70.4002 136.669h-1.3637v1.362h1.3637v-1.362zM149.595 136.669h-1.364v1.362h1.364v-1.362zM69.0365 135.306h-1.3637v1.363h1.3637v-1.363zM148.231 135.306h-1.364v1.363h1.364v-1.363zM67.6728 136.669h-1.3637v1.362h1.3637v-1.362zM146.867 136.669h-1.364v1.362h1.364v-1.362zM66.3038 135.306h-1.3637v1.363h1.3637v-1.363zM145.498 135.306h-1.363v1.363h1.363v-1.363zM64.9401 136.669h-1.3637v1.362h1.3637v-1.362zM144.135 136.669h-1.364v1.362h1.364v-1.362zM63.5764 135.306h-1.3637v1.363h1.3637v-1.363zM142.771 135.306h-1.364v1.363h1.364v-1.363zM62.2075 136.669h-1.3637v1.362h1.3637v-1.362zM141.402 136.669h-1.364v1.362h1.364v-1.362zM60.8438 135.306h-1.3637v1.363h1.3637v-1.363zM140.038 135.306h-1.364v1.363h1.364v-1.363zM59.4801 136.669h-1.3638v1.362h1.3638v-1.362zM138.675 136.669h-1.364v1.362h1.364v-1.362zM58.1112 135.306h-1.3638v1.363h1.3638v-1.363zM137.306 135.306h-1.364v1.363h1.364v-1.363zM56.7475 136.669h-1.3638v1.362h1.3638v-1.362zM135.942 136.669h-1.364v1.362h1.364v-1.362zM55.3837 135.306H54.02v1.363h1.3637v-1.363zM134.578 135.306h-1.364v1.363h1.364v-1.363zM54.0148 136.669h-1.3637v1.362h1.3637v-1.362zM133.209 136.669h-1.364v1.362h1.364v-1.362zM52.6511 135.306h-1.3637v1.363h1.3637v-1.363zM131.846 135.306h-1.364v1.363h1.364v-1.363zM51.2874 136.669h-1.3638v1.362h1.3638v-1.362zM130.482 136.669h-1.364v1.362h1.364v-1.362zM49.9184 135.306h-1.3637v1.363h1.3637v-1.363zM129.113 135.306h-1.364v1.363h1.364v-1.363zM48.5547 136.669H47.191v1.362h1.3637v-1.362zM127.749 136.669h-1.364v1.362h1.364v-1.362zM47.191 135.306h-1.3637v1.363h1.3637v-1.363zM126.385 135.306h-1.363v1.363h1.363v-1.363zM45.8221 136.669h-1.3637v1.362h1.3637v-1.362zM125.017 136.669h-1.364v1.362h1.364v-1.362zM44.4584 135.306h-1.3637v1.363h1.3637v-1.363zM123.653 135.306h-1.364v1.363h1.364v-1.363zM43.0946 136.669h-1.3637v1.362h1.3637v-1.362zM122.289 136.669h-1.364v1.362h1.364v-1.362zM41.7258 135.306H40.362v1.363h1.3638v-1.363zM120.92 135.306h-1.364v1.363h1.364v-1.363zM40.362 136.669h-1.3637v1.362h1.3637v-1.362zM119.556 136.669h-1.363v1.362h1.363v-1.362zM38.9983 135.306h-1.3637v1.363h1.3637v-1.363zM118.193 135.306h-1.364v1.363h1.364v-1.363zM37.6294 136.669h-1.3637v1.362h1.3637v-1.362zM116.824 136.669h-1.364v1.362h1.364v-1.362zM36.2657 135.306h-1.3638v1.363h1.3638v-1.363zM115.46 135.306h-1.364v1.363h1.364v-1.363zM34.902 136.669h-1.3638v1.362h1.3638v-1.362zM114.096 136.669h-1.363v1.362h1.363v-1.362zM33.533 135.306h-1.3637v1.363h1.3637v-1.363zM112.727 135.306h-1.363v1.363h1.363v-1.363zM32.1693 136.669h-1.3637v1.362h1.3637v-1.362zM111.364 136.669H110v1.362h1.364v-1.362zM30.8056 135.306h-1.3637v1.363h1.3637v-1.363zM110 135.306h-1.364v1.363H110v-1.363zM29.4367 136.669H28.073v1.362h1.3637v-1.362zM108.631 136.669h-1.364v1.362h1.364v-1.362zM28.073 135.306h-1.3637v1.363h1.3637v-1.363zM107.267 135.306h-1.363v1.363h1.363v-1.363zM26.7092 136.669h-1.3637v1.362h1.3637v-1.362zM105.904 136.669h-1.364v1.362h1.364v-1.362zM104.535 135.306h-1.364v1.363h1.364v-1.363zM103.171 136.669h-1.364v1.362h1.364v-1.362zM101.807 135.306h-1.363v1.363h1.363v-1.363zM100.438 136.669h-1.3633v1.362h1.3633v-1.362zM25.3403 135.306h-1.3637v1.363h1.3637v-1.363zM23.9766 136.669h-1.3637v1.362h1.3637v-1.362zM22.6129 135.306h-1.3637v1.363h1.3637v-1.363zM21.244 136.669h-1.3637v1.362h1.3637v-1.362zM19.8803 135.306h-1.3638v1.363h1.3638v-1.363zM15.7839 137.358h1.3793v-1.378h-1.3793v1.378zm-.6793-2.052h2.7327v2.73h-2.7327v-2.73zM196.023 136.669h-1.363v1.362h1.363v-1.362zM197.387 135.306h-1.364v1.363h1.364v-1.363zM198.751 136.669h-1.364v1.362h1.364v-1.362zM200.12 135.306h-1.364v1.363h1.364v-1.363zM201.484 136.669h-1.364v1.362h1.364v-1.362zM204.216 135.985h-1.379v1.378h1.379v-1.378zm.679 2.051h-2.732v-2.73h2.732v2.73z" fill="#fff"/></svg>